# xmcd CD database file
#
# Track frame offsets:
#	182
#	18572
#	30985
#	39077
#	58035
#	74242
#	90957
#	103607
#	118040
#	133870
#	147880
#	163075
#	175967
#	191910
#
# Disc length: 2837 seconds
#
# Revision: 4
# Processed by: cddbd v1.5.1PL2 Copyright (c) Steve Scherf et al.
# Submitted via: CDex 1.51
#
DISCID=c40b130e
DTITLE=Renato Teixeira - Os Grandes Da MPB - 32
DYEAR=1900
DGENRE=
TTITLE0=Romaria
TTITLE1=Amanheceu, Peguei A Viola
TTITLE2=Vira (No Meu Quintal)
TTITLE3=Amizade Sincera
TTITLE4=Sina De Violeiro
TTITLE5=Vida Malvada
TTITLE6=Arraial
TTITLE7=Frete
TTITLE8=Amora
TTITLE9=Cavalo Bravo
TTITLE10=A Primeira Vez Que Fui Ao Rio
TTITLE11=Rio Abaixo
TTITLE12=Olhos Profundos
TTITLE13=Sentimental Eu Fico
EXTD=
EXTT0=
EXTT1=
EXTT2=
EXTT3=
EXTT4=
EXTT5=
EXTT6=
EXTT7=
EXTT8=
EXTT9=
EXTT10=
EXTT11=
EXTT12=
EXTT13=
PLAYORDER=
